<svg width="27" height="27" viewBox="0 0 27 27" fill="none" xmlns="http://www.w3.org/2000/svg">
<path d="M26.9427 25.0574L22.0334 20.1481C23.9535 17.746 24.8809 14.6999 24.6251 11.6354C24.3693 8.57089 22.9497 5.72067 20.6579 3.67022C18.3662 1.61977 15.3762 0.524754 12.3022 0.610109C9.22824 0.695463 6.30364 1.95471 4.12917 4.12917C1.95471 6.30364 0.695463 9.22824 0.610109 12.3022C0.524754 15.3762 1.61977 18.3662 3.67022 20.6579C5.72067 22.9497 8.57089 24.3693 11.6354 24.6251C14.6999 24.8809 17.746 23.9535 20.1481 22.0334L25.0574 26.9427L26.9427 25.0574ZM12.6667 22C10.8208 22 9.01625 21.4527 7.48139 20.4271C5.94653 19.4015 4.75026 17.9439 4.04384 16.2384C3.33742 14.533 3.15259 12.6564 3.51272 10.8459C3.87285 9.03538 4.76176 7.37234 6.06705 6.06705C7.37234 4.76176 9.03538 3.87285 10.8459 3.51272C12.6564 3.15259 14.533 3.33742 16.2384 4.04384C17.9439 4.75026 19.4015 5.94653 20.4271 7.48139C21.4527 9.01625 22 10.8208 22 12.6667C21.9972 15.1412 21.013 17.5135 19.2633 19.2633C17.5135 21.013 15.1412 21.9972 12.6667 22Z" fill="white"/>
</svg>
