<svg width="1409" height="800" viewBox="0 0 1409 800" fill="none" xmlns="http://www.w3.org/2000/svg">
<path d="M0.600098 43.3C0.600098 43.3 11.4001 35.2 14.5001 22C17.6001 8.8 29.1001 0 29.1001 0" stroke="#F7C193" stroke-width="2" stroke-miterlimit="10"/>
<path d="M0.600098 79.3C0.600098 79.3 37.6001 67.9 47.4001 39.2C56.8001 11.3 94.8001 0 94.8001 0" stroke="#F7C193" stroke-width="2" stroke-miterlimit="10"/>
<path d="M0.600098 115.3C0.600098 115.3 63.8001 100.6 80.2001 56.5C96.0001 14 160.5 0 160.5 0" stroke="#F7C193" stroke-width="2" stroke-miterlimit="10"/>
<path d="M0.600098 151.4C0.600098 151.4 89.9001 133.3 113.1 73.8C135.2 16.6 226.1 0 226.1 0" stroke="#F7C193" stroke-width="2" stroke-miterlimit="10"/>
<path d="M0.600098 187.4C0.600098 187.4 116.1 166 145.9 91.1C174.4 19.3 291.8 0 291.8 0" stroke="#F7C193" stroke-width="2" stroke-miterlimit="10"/>
<path d="M0.600098 223.4C0.600098 223.4 142.3 198.7 178.8 108.3C213.6 22 357.5 0 357.5 0" stroke="#F7C193" stroke-width="2" stroke-miterlimit="10"/>
<path d="M0.600098 259.5C0.600098 259.5 168.4 231.4 211.6 125.7C252.8 24.6 423.2 0 423.2 0" stroke="#F7C193" stroke-width="2" stroke-miterlimit="10"/>
<path d="M0.600098 295.5C0.600098 295.5 194.6 264.1 244.5 142.9C292 27.3 488.9 0 488.9 0" stroke="#F7C193" stroke-width="2" stroke-miterlimit="10"/>
<path d="M0.600098 331.5C0.600098 331.5 220.8 296.8 277.4 160.2C331.2 30 554.5 0 554.5 0" stroke="#F7C193" stroke-width="2" stroke-miterlimit="10"/>
<path d="M0.600098 367.6C0.600098 367.6 246.9 329.6 310.2 177.5C370.5 32.6 620.2 0 620.2 0" stroke="#F7C193" stroke-width="2" stroke-miterlimit="10"/>
<path d="M0.600098 403.6C0.600098 403.6 273.1 362.2 343.1 194.8C409.7 35.3 685.9 0 685.9 0" stroke="#F7C193" stroke-width="2" stroke-miterlimit="10"/>
<path d="M0.600098 439.6C0.600098 439.6 299.3 394.9 375.9 212C448.9 38 751.6 0 751.6 0" stroke="#F7C193" stroke-width="2" stroke-miterlimit="10"/>
<path d="M0.600098 475.7C0.600098 475.7 325.4 427.7 408.8 229.4C488.1 40.6 817.2 0 817.2 0" stroke="#F7C193" stroke-width="2" stroke-miterlimit="10"/>
<path d="M0.600098 511.7C0.600098 511.7 351.6 460.4 441.6 246.7C527.3 43.3 882.9 0 882.9 0" stroke="#F7C193" stroke-width="2" stroke-miterlimit="10"/>
<path d="M0.600098 547.8C0.600098 547.8 377.8 493.1 474.5 264C566.5 46 948.6 0 948.6 0" stroke="#F7C193" stroke-width="2" stroke-miterlimit="10"/>
<path d="M0.600098 583.8C0.600098 583.8 403.9 525.8 507.3 281.3C605.7 48.6 1014.3 0 1014.3 0" stroke="#F7C193" stroke-width="2" stroke-miterlimit="10"/>
<path d="M0.600098 619.8C0.600098 619.8 430.1 558.5 540.2 298.5C644.9 51.3 1080 0 1080 0" stroke="#F7C193" stroke-width="2" stroke-miterlimit="10"/>
<path d="M0.600098 655.9C0.600098 655.9 456.3 591.2 573.1 315.9C684.1 54 1145.6 0 1145.6 0" stroke="#F7C193" stroke-width="2" stroke-miterlimit="10"/>
<path d="M0.600098 691.9C0.600098 691.9 482.4 623.9 605.9 333.1C723.3 56.6 1211.3 0 1211.3 0" stroke="#F7C193" stroke-width="2" stroke-miterlimit="10"/>
<path d="M0.600098 727.9C0.600098 727.9 508.6 656.6 638.8 350.4C762.5 59.3 1277 0 1277 0" stroke="#F7C193" stroke-width="2" stroke-miterlimit="10"/>
<path d="M0.600098 764C0.600098 764 534.8 689.4 671.6 367.7C801.7 62 1342.7 0 1342.7 0" stroke="#F7C193" stroke-width="2" stroke-miterlimit="10"/>
<path d="M0.600098 800C0.600098 800 560.9 722 704.5 385C840.9 64.6 1408.3 0 1408.3 0" stroke="#F7C193" stroke-width="2" stroke-miterlimit="10"/>
</svg>
